first trial
nRows=39
nColumns=38

# SIMM Motion File Header:
name Sujet_06_velo_80.mvnx
datacolumns 38
datarows 39
otherdata 1
range 7.9000 8.5330
endheader
time pelvis_tilt  pelvis_list  pelvis_rotation  pelvis_tx  pelvis_ty  pelvis_tz  hip_flexion_r  hip_adduction_r  hip_rotation_r  knee_angle_r  ankle_angle_r  subtalar_angle_r  mtp_angle_r  hip_flexion_l  hip_adduction_l  hip_rotation_l  knee_angle_l  ankle_angle_l  subtalar_angle_l  mtp_angle_l  lumbar_extension  lumbar_bending  lumbar_rotation  arm_flex_r  arm_add_r  arm_rot_r  elbow_flex_r  pro_sup_r  wrist_flex_r  wrist_dev_r  arm_flex_l  arm_add_l  arm_rot_l  elbow_flex_l  pro_sup_l  wrist_flex_l  wrist_dev_l
7.9000	-9.2219	4.6125	-8.8558	0.0000	1.2500	-0.0000	55.6460	-2.1827	-3.6217	91.4399	-4.0312	-4.5844	0.0000	66.1911	-3.9103	-0.9431	65.2709	-2.7438	-2.2836	-0.0000	-14.9907	-1.3707	-1.9709	86.9395	10.5282	14.1584	7.1494	111.9138	-28.8389	-13.1010	90.9517	-7.3127	20.3160	19.4582	130.7910	-15.9415	-4.3437	
7.9160	-9.2718	4.4453	-9.1110	0.0000	1.2500	-0.0000	58.4986	-1.6207	-2.9320	96.0468	-4.5927	-4.5059	-0.0000	62.2534	-3.6142	-2.0922	59.7552	-3.2549	-2.3504	-0.0000	-14.8755	-1.2054	-1.9031	86.8815	10.6682	14.5012	7.1022	112.1083	-28.7559	-13.0308	90.5069	-7.1847	21.6159	19.0753	129.0604	-16.3149	-4.6046	
7.9330	-9.3490	4.2213	-9.3147	0.0000	1.2500	-0.0000	61.5115	-1.0099	-2.3002	100.3225	-5.3925	-4.3592	-0.0000	58.0658	-3.3356	-3.2568	54.1494	-3.7299	-2.5455	-0.0000	-14.7331	-1.0162	-1.8374	86.7437	10.8206	14.9438	7.0683	112.3022	-28.6772	-12.9785	89.9455	-6.9661	23.4132	18.6298	126.7973	-16.7797	-4.9489	
7.9500	-9.4551	3.9878	-9.5227	0.0000	1.2500	-0.0000	64.4420	-0.2988	-1.8221	104.0322	-5.6063	-4.2482	-0.0000	54.0231	-3.1014	-4.3239	48.9334	-4.3590	-2.5716	0.0000	-14.5861	-0.8288	-1.7569	86.5617	10.9413	15.4728	7.0494	112.4723	-28.6071	-12.9517	89.3777	-6.8441	25.0977	18.2652	124.6399	-17.2061	-5.3283	
7.9660	-9.5986	3.7422	-9.7309	0.0000	1.2500	-0.0000	67.2323	0.5322	-1.5672	107.1283	-4.8323	-4.1675	-0.0000	50.1072	-2.9521	-5.2914	44.0346	-5.2726	-2.2554	0.0000	-14.4284	-0.6339	-1.6543	86.3238	10.9970	16.1708	7.0373	112.5917	-28.5404	-12.9704	88.8127	-6.8988	26.5651	18.0453	122.7066	-17.5506	-5.7729	
7.9830	-9.7708	3.4869	-9.9440	0.0000	1.2500	-0.0000	69.9450	1.4357	-1.4733	109.6674	-3.4705	-4.1573	-0.0000	46.3290	-2.8706	-6.1824	39.5258	-6.3479	-1.7698	-0.0000	-14.2660	-0.4408	-1.5367	86.0437	11.0192	16.9551	7.0405	112.6871	-28.4820	-13.0153	88.2442	-7.0496	27.9181	17.9410	120.8930	-17.8553	-6.2497	
8.0000	-9.9477	3.2766	-10.2305	0.0000	1.2500	-0.0000	72.5155	2.3722	-1.4355	111.5750	-1.9002	-4.3841	-0.0000	43.1262	-2.8209	-6.9210	36.1123	-7.3926	-1.3358	-0.0000	-14.1396	-0.3034	-1.4078	85.7960	11.0627	17.5636	7.0858	112.8160	-28.4523	-13.0348	87.7557	-7.2391	28.8543	17.9782	119.5175	-18.1174	-6.6139	
8.0160	-10.1408	3.1508	-10.6643	0.0000	1.2500	-0.0000	74.9740	3.3884	-1.4463	112.8352	-0.0822	-5.0140	-0.0000	40.6194	-2.8161	-7.4063	33.9905	-8.4067	-1.0092	0.0000	-14.0604	-0.2616	-1.2564	85.5956	11.1524	17.8461	7.2080	113.0413	-28.4835	-13.0066	87.3815	-7.4843	29.1414	18.2067	118.8137	-18.3290	-6.7993	
8.0330	-10.3388	3.0690	-11.1713	0.0000	1.2500	-0.0000	77.2888	4.4449	-1.5189	113.4657	1.9363	-5.8512	-0.0000	38.6824	-2.8791	-7.7406	32.9641	-9.3908	-0.7230	-0.0000	-14.0163	-0.2761	-1.0933	85.4272	11.2646	17.9534	7.3709	113.2998	-28.5436	-12.9516	87.0778	-7.7662	29.0081	18.5689	118.5478	-18.4971	-6.8718	
8.0500	-10.4829	2.9688	-11.5964	0.0000	1.2500	-0.0000	79.2997	5.3824	-1.5557	113.4391	3.6540	-6.5112	0.0000	37.3860	-2.9945	-8.1406	33.1542	-10.1410	-0.5202	-0.0000	-14.0125	-0.2824	-0.9547	85.3185	11.3824	18.0756	7.4961	113.4592	-28.5575	-12.8835	86.8111	-7.9742	28.8439	18.9194	118.3364	-18.6410	-6.8843	
8.0660	-10.5455	2.8027	-11.8648	0.0000	1.2500	-0.0000	81.0385	6.1528	-1.4161	112.7318	4.8802	-6.8568	0.0000	36.8469	-3.1725	-8.7861	34.8082	-10.5186	-0.4811	0.0000	-14.0651	-0.2470	-0.8547	85.2749	11.5159	18.3222	7.5524	113.4245	-28.4937	-12.8114	86.5698	-8.0519	28.7986	19.2445	118.0140	-18.7775	-6.8287	
8.0830	-10.5543	2.6199	-12.0508	0.0000	1.2500	-0.0000	82.4718	6.8058	-1.2021	111.3705	5.8130	-7.0465	-0.0000	36.9473	-3.4303	-9.4842	37.6864	-10.6544	-0.5332	-0.0000	-14.1578	-0.2039	-0.7790	85.2915	11.6563	18.5832	7.5720	113.2911	-28.3841	-12.7268	86.3680	-8.0574	28.7236	19.5551	117.7476	-18.8892	-6.7144	
8.1000	-10.5318	2.5033	-12.2227	0.0000	1.2500	-0.0000	83.3421	7.3211	-1.1576	109.3974	6.5440	-7.1611	0.0000	37.4083	-3.7556	-9.8913	41.1835	-10.7462	-0.4958	-0.0000	-14.2479	-0.1886	-0.7220	85.3817	11.7579	18.7187	7.5731	113.2130	-28.2486	-12.6175	86.2134	-8.0533	28.5618	19.7467	117.6532	-18.9461	-6.6201	
8.1160	-10.4823	2.4975	-12.4319	0.0000	1.2500	-0.0000	83.5498	7.7078	-1.3878	106.7492	7.1017	-7.2087	-0.0000	38.1750	-4.1452	-9.8568	45.2145	-10.8950	-0.2484	-0.0000	-14.3223	-0.2197	-0.6810	85.5948	11.7947	18.6526	7.5611	113.2531	-28.0777	-12.4634	86.1193	-8.0640	28.2219	19.7551	117.8571	-18.9219	-6.5771	
8.1330	-10.4021	2.5584	-12.6271	0.0000	1.2500	-0.0000	83.1918	7.9558	-1.7639	103.4763	7.4582	-7.1833	-0.0000	39.3044	-4.5979	-9.5214	49.8545	-11.0008	0.0838	-0.0000	-14.3937	-0.2784	-0.6589	85.8821	11.7926	18.4610	7.5307	113.3485	-27.8818	-12.2848	86.0734	-8.0664	27.7953	19.6464	118.2323	-18.8435	-6.5531	
8.1500	-10.3022	2.6345	-12.7231	0.0000	1.2500	-0.0000	82.3063	8.0142	-2.1830	99.7909	7.6192	-7.1227	0.0000	40.6871	-5.0910	-8.9837	54.7448	-10.9574	0.3111	0.0000	-14.4585	-0.3438	-0.6581	86.1103	11.7844	18.2320	7.4852	113.4647	-27.7094	-12.1291	86.0441	-8.0500	27.4981	19.5120	118.5141	-18.7609	-6.5302	
8.1660	-10.1778	2.7165	-12.7090	0.0000	1.2500	-0.0000	80.8482	7.8668	-2.6378	95.7000	7.6035	-7.0573	0.0000	42.3087	-5.6237	-8.1913	59.8787	-10.6868	0.3388	-0.0000	-14.5122	-0.4145	-0.6772	86.2270	11.7974	17.9964	7.4143	113.6074	-27.5689	-12.0010	85.9752	-8.0045	27.4605	19.3674	118.5408	-18.6937	-6.5116	
8.1830	-10.0331	2.8132	-12.5960	0.0000	1.2500	-0.0000	78.8636	7.5431	-3.1527	91.1925	7.3907	-6.9399	-0.0000	44.1958	-6.1640	-7.1909	65.2776	-10.2671	0.2478	0.0000	-14.5597	-0.4917	-0.7174	86.2849	11.8039	17.7232	7.3286	113.7710	-27.4509	-11.8949	85.9218	-7.9393	27.5521	19.1955	118.4739	-18.6222	-6.4942	
8.2000	-9.8918	2.8989	-12.3332	0.0000	1.2500	-0.0000	76.5308	7.0616	-3.6848	86.4644	6.9249	-6.6946	-0.0000	46.2967	-6.6501	-6.2367	70.6353	-9.8247	0.1078	-0.0000	-14.6111	-0.5586	-0.7845	86.3076	11.7552	17.4080	7.2627	113.9040	-27.3755	-11.8426	86.0183	-7.8721	27.5980	19.0380	118.5330	-18.5377	-6.4512	
8.2160	-9.7449	2.9489	-11.8695	0.0000	1.2500	-0.0000	73.8701	6.4245	-4.2659	81.5263	6.1187	-6.2391	0.0000	48.6025	-7.0519	-5.4907	75.9475	-9.3186	-0.1126	0.0000	-14.6823	-0.6047	-0.8851	86.3244	11.6244	16.9989	7.2300	114.0032	-27.3562	-11.8540	86.3622	-7.8260	27.5344	18.9196	118.8047	-18.4327	-6.3628	
8.2330	-9.6012	2.9867	-11.2562	0.0000	1.2500	-0.0000	70.8628	5.6584	-4.9193	76.3692	5.0513	-5.6718	0.0000	51.1205	-7.3857	-4.8070	81.2144	-8.7953	-0.3929	0.0000	-14.7582	-0.6399	-1.0124	86.3042	11.4399	16.5478	7.2168	114.0715	-27.3795	-11.9192	86.8567	-7.7748	27.4271	18.8183	119.2028	-18.3145	-6.2488	
8.2500	-9.5093	3.0615	-10.5950	0.0000	1.2500	-0.0000	67.6288	4.8060	-5.5843	71.1657	3.9185	-5.1929	0.0000	53.8203	-7.6671	-3.9812	86.1352	-8.5027	-0.5683	0.0000	-14.8024	-0.6786	-1.1536	86.1800	11.2368	16.2061	7.2157	114.0663	-27.4251	-12.0406	87.3447	-7.6642	27.2938	18.7052	119.6880	-18.1969	-6.1430	
8.2660	-9.4929	3.1917	-9.8880	0.0000	1.2500	-0.0000	64.0872	3.8869	-6.2941	65.8285	2.7992	-4.9604	0.0000	56.7373	-7.8816	-2.9398	90.6667	-8.6157	-0.5272	-0.0000	-14.8024	-0.7267	-1.3119	85.9551	11.0348	16.0267	7.2067	113.9372	-27.4582	-12.2184	87.7804	-7.4418	27.1204	18.5681	120.2914	-18.0736	-6.0559	
8.2830	-9.5265	3.3610	-9.1325	0.0000	1.2500	-0.0000	60.3163	2.8994	-7.0624	60.4530	1.6214	-4.8108	-0.0000	59.8401	-8.0131	-1.7763	94.8555	-8.9522	-0.3587	0.0000	-14.7710	-0.7791	-1.4845	85.6262	10.8165	15.9554	7.2092	113.7343	-27.5144	-12.4525	88.2081	-7.1601	26.9191	18.4183	120.9814	-17.9511	-5.9768	
8.3000	-9.5859	3.5663	-8.4236	0.0000	1.2500	-0.0000	56.6733	1.8143	-7.7687	55.5025	0.3526	-4.4590	-0.0000	63.0008	-8.0797	-0.5252	98.5421	-9.2203	-0.1820	0.0000	-14.7092	-0.8348	-1.6503	85.1181	10.5617	15.9823	7.2765	113.5662	-27.6799	-12.7450	88.6053	-6.9254	26.7452	18.2569	121.6246	-17.8633	-5.9076	
8.3160	-9.6678	3.8273	-7.7676	0.0000	1.2500	-0.0000	53.1663	0.5170	-8.2987	50.9942	-1.0969	-3.7540	0.0000	66.2574	-8.0970	0.9106	101.7033	-9.4495	0.0024	0.0000	-14.6047	-0.8943	-1.8058	84.3484	10.2344	16.0520	7.4587	113.5641	-28.0399	-13.1221	88.9679	-6.7684	26.6862	18.0393	122.1179	-17.8114	-5.8500	
8.3330	-9.7743	4.1253	-7.1574	0.0000	1.2500	-0.0000	49.7809	-0.9174	-8.7834	46.9480	-2.6542	-2.8477	-0.0000	69.5716	-8.0399	2.4285	104.3664	-9.6159	0.1938	-0.0000	-14.4692	-0.9582	-1.9543	83.4011	9.8703	16.2176	7.7077	113.5969	-28.5133	-13.5594	89.3003	-6.6592	26.6538	17.8034	122.5654	-17.7941	-5.8024	
8.3500	-9.8912	4.3994	-6.6690	0.0000	1.2500	-0.0000	46.8393	-2.2492	-9.4048	43.8174	-4.1123	-1.9037	-0.0000	72.6935	-7.9097	3.7135	106.4352	-9.3393	0.2641	0.0000	-14.3401	-1.0239	-2.0850	82.4511	9.5556	16.6334	7.9316	113.3803	-28.9346	-13.9823	89.5942	-6.6143	26.4397	17.6690	123.1423	-17.8417	-5.7619	
8.3660	-10.0228	4.6309	-6.3421	0.0000	1.2500	-0.0000	44.4204	-3.4557	-10.2257	41.6914	-5.4806	-0.8310	0.0000	75.6028	-7.7535	4.6464	107.8977	-8.3533	0.1910	-0.0000	-14.2237	-1.0899	-2.1940	81.4777	9.3029	17.5868	8.1139	112.6238	-29.2529	-14.3980	89.8483	-6.6579	25.8926	17.6939	123.9910	-17.9841	-5.7252	
8.3830	-10.1672	4.8377	-6.1369	0.0000	1.2500	-0.0000	42.4442	-4.5748	-11.1134	40.4556	-6.7547	0.2987	0.0000	78.3104	-7.5809	5.3686	108.7502	-6.9184	-0.0139	-0.0000	-14.1129	-1.1568	-2.2851	80.5074	9.0951	18.7937	8.2756	111.6190	-29.5155	-14.7974	90.0631	-6.7691	25.1648	17.8064	124.9638	-18.1907	-5.6943	
8.4000	-10.3004	5.0136	-6.0101	0.0000	1.2500	-0.0000	41.0037	-5.4592	-11.9031	40.2307	-7.6757	1.0748	0.0000	80.6092	-7.3615	5.9629	108.9010	-5.4389	-0.4251	-0.0000	-14.0251	-1.2244	-2.3594	79.7782	8.9792	19.5540	8.3767	110.9547	-29.7006	-15.0800	90.2348	-6.8972	24.5033	17.9412	125.8012	-18.4012	-5.6743	
8.4160	-10.4233	5.1649	-5.9619	0.0000	1.2500	-0.0000	40.1842	-6.0671	-12.5899	41.1307	-8.1197	1.3077	0.0000	82.4911	-7.0959	6.5112	108.3050	-3.9493	-1.1905	-0.0000	-13.9644	-1.3015	-2.4182	79.4218	9.0125	19.4447	8.3711	110.9797	-29.7780	-15.1777	90.3391	-7.0373	23.9639	18.1160	126.4242	-18.6098	-5.6688	
8.4330	-10.5360	5.2845	-5.9926	0.0000	1.2500	-0.0000	39.9157	-6.4721	-13.1308	43.0213	-8.1899	1.1673	-0.0000	83.9632	-6.8020	6.9437	107.0032	-2.4264	-2.1553	0.0000	-13.9265	-1.3789	-2.4604	79.3003	9.1396	18.8889	8.2986	111.3446	-29.7762	-15.1586	90.4019	-7.1937	23.4912	18.3255	126.9126	-18.8223	-5.6745	
8.4500	-10.6123	5.3459	-6.0588	0.0000	1.2500	-0.0000	40.0634	-6.7024	-13.3061	45.6591	-7.9561	0.7659	0.0000	84.8432	-6.4729	7.1104	105.0396	-1.1767	-2.9495	0.0000	-13.9161	-1.4301	-2.4836	79.2407	9.2439	18.4551	8.2460	111.5905	-29.7619	-15.1279	90.4967	-7.3276	23.1661	18.4828	127.2499	-18.9958	-5.6880	
8.4660	-10.6372	5.3357	-6.1467	0.0000	1.2500	-0.0000	40.6407	-6.7269	-13.0013	49.1045	-7.4116	0.0051	0.0000	85.0714	-6.0832	6.9818	102.3767	-0.3426	-3.4095	0.0000	-13.9457	-1.4466	-2.4850	79.1782	9.2813	18.3863	8.2686	111.4998	-29.7685	-15.1214	90.6764	-7.4300	23.0721	18.5495	127.3770	-19.1139	-5.7157	
8.4830	-10.6255	5.2672	-6.2704	0.0000	1.2500	-0.0000	41.6357	-6.5671	-12.3323	53.3171	-6.5938	-1.0481	0.0000	84.7136	-5.6632	6.5962	99.0825	0.2306	-3.7133	-0.0000	-14.0029	-1.4371	-2.4674	79.1779	9.2961	18.4393	8.3109	111.2900	-29.7625	-15.1034	90.8883	-7.5093	23.1258	18.5701	127.3557	-19.1934	-5.7518	
8.5000	-10.5953	5.1543	-6.4283	0.0000	1.2500	-0.0000	42.8744	-6.3247	-11.4299	57.9033	-5.6170	-2.0156	0.0000	83.7786	-5.2855	5.9039	95.3636	0.6895	-3.9894	0.0000	-14.0556	-1.4009	-2.4370	79.2623	9.3076	18.4540	8.2945	111.1538	-29.7097	-15.0720	91.0465	-7.5535	23.1580	18.5803	127.3510	-19.2416	-5.7739	
8.5160	-10.5428	4.9733	-6.6040	0.0000	1.2500	-0.0000	44.2943	-6.0060	-10.2499	62.8285	-4.3479	-2.7852	-0.0000	82.2365	-4.9346	4.8027	91.2321	1.0491	-4.2431	0.0000	-14.0977	-1.3219	-2.3986	79.4629	9.3121	18.3627	8.1693	111.1593	-29.5704	-15.0174	91.1237	-7.5384	23.0934	18.6008	127.4577	-19.2462	-5.7635	
8.5330	-10.4710	4.7481	-6.8137	0.0000	1.2500	-0.0000	45.9536	-5.5745	-8.8524	68.1068	-2.9054	-3.4642	-0.0000	80.1266	-4.5838	3.3973	86.6962	1.2934	-4.4273	-0.0000	-14.1357	-1.2162	-2.3476	79.7483	9.3132	18.2334	7.9861	111.2385	-29.3846	-14.9493	91.1472	-7.4887	23.0068	18.6119	127.5818	-19.2195	-5.7392	
